<svg xmlns="http://www.w3.org/2000/svg" xmlns:xlink="http://www.w3.org/1999/xlink" width="0" height="0" style="display:none;"><symbol id="flame">
<metadata>
Created by potrace 1.15, written by Peter Selinger 2001-2017
</metadata>
<g transform="translate(0.000000,16.000000) scale(0.100000,-0.100000)">
</g>
</symbol><symbol id="pokeball">
<metadata>
Created by potrace 1.15, written by Peter Selinger 2001-2017
</metadata>
<g transform="translate(0.000000,24.000000) scale(0.100000,-0.100000)">
<path d="M34 206 c-30 -30 -34 -40 -34 -86 0 -46 4 -56 34 -86 30 -30 40 -34
86 -34 75 0 120 45 120 120 0 46 -4 56 -34 86 -30 30 -40 34 -86 34 -46 0 -56
-4 -86 -34z m106 -71 c7 -9 29 -15 51 -15 44 0 49 -12 25 -59 -36 -68 -156
-68 -192 0 -24 47 -19 59 25 59 22 0 44 6 51 15 7 8 16 15 20 15 4 0 13 -7 20
-15z"/>
</g>
</symbol></svg>